<svg width="79" height="35" viewBox="0 0 79 35" fill="none" xmlns="http://www.w3.org/2000/svg">
<path d="M22.6441 29H22.6101C21.4881 29 20.7968 28.8073 20.5361 28.422C20.4114 28.2407 20.3094 28.065 20.2301 27.895C20.1621 27.725 20.1168 27.4587 20.0941 27.096C20.0374 26.4387 20.0091 25.7077 20.0091 24.903C20.0091 24.0983 20.0148 23.5203 20.0261 23.169C20.0374 22.8063 20.0714 22.4437 20.1281 22.081C20.1961 21.707 20.2811 21.4407 20.3831 21.282C20.4851 21.112 20.6381 20.959 20.8421 20.823C21.0461 20.687 21.2841 20.602 21.5561 20.568C21.8281 20.5227 22.1794 20.5 22.6101 20.5H22.6441V29ZM24.6161 26.314C25.3754 26.314 25.9534 26.314 26.3501 26.314C26.7468 26.314 26.9508 26.3197 26.9621 26.331C26.9734 26.331 26.9904 26.3367 27.0131 26.348C27.0471 26.348 27.0698 26.3537 27.0811 26.365C27.0924 26.3763 27.1038 26.3933 27.1151 26.416C27.1264 26.4273 27.1321 26.45 27.1321 26.484C27.1548 26.5633 27.1661 26.6257 27.1661 26.671V27.181C27.1661 28.3937 26.5484 29 25.3131 29H23.1711V27.725H24.0891C24.3271 27.725 24.4744 27.691 24.5311 27.623C24.5878 27.5437 24.6161 27.4077 24.6161 27.215V26.314ZM23.1711 20.5H25.3131C26.5484 20.5 27.1661 21.1063 27.1661 22.319V23.475C26.4068 23.475 25.8288 23.475 25.4321 23.475C25.0354 23.475 24.8314 23.475 24.8201 23.475C24.8088 23.4637 24.7861 23.458 24.7521 23.458C24.7294 23.4467 24.7124 23.4353 24.7011 23.424C24.6898 23.4127 24.6784 23.4013 24.6671 23.39C24.6558 23.3673 24.6501 23.3447 24.6501 23.322C24.6274 23.2313 24.6161 23.1633 24.6161 23.118V22.285C24.6161 22.0923 24.5878 21.962 24.5311 21.894C24.4744 21.8147 24.3271 21.775 24.0891 21.775H23.1711V20.5ZM31.9031 20.5H33.5521C33.9828 20.5 34.3341 20.5227 34.6061 20.568C34.8781 20.602 35.1161 20.687 35.3201 20.823C35.5241 20.959 35.6771 21.112 35.7791 21.282C35.8811 21.4407 35.9604 21.7013 36.0171 22.064C36.1078 22.574 36.1531 23.288 36.1531 24.206C36.1531 25.124 36.1474 25.7473 36.1361 26.076C36.1248 26.3933 36.1021 26.7333 36.0681 27.096C36.0454 27.4587 35.9944 27.725 35.9151 27.895C35.8471 28.065 35.7508 28.2407 35.6261 28.422C35.5128 28.592 35.3598 28.711 35.1671 28.779C34.7478 28.9263 34.2094 29 33.5521 29H33.5181V22.591C33.5181 22.5683 33.5181 22.5003 33.5181 22.387C33.5181 22.2737 33.5124 22.1773 33.5011 22.098C33.4444 21.8827 33.2178 21.775 32.8211 21.775H31.9031V20.5ZM31.3931 20.5V26.909C31.3931 26.9317 31.3931 26.9997 31.3931 27.113C31.3931 27.2263 31.4044 27.3227 31.4271 27.402C31.4724 27.6173 31.6934 27.725 32.0901 27.725H33.0081V29H31.3591C30.9284 29 30.5771 28.983 30.3051 28.949C30.0331 28.9037 29.7951 28.813 29.5911 28.677C29.3871 28.541 29.2341 28.3937 29.1321 28.235C29.0301 28.065 28.9451 27.7987 28.8771 27.436C28.7978 26.926 28.7581 26.212 28.7581 25.294C28.7581 24.376 28.7638 23.7583 28.7751 23.441C28.7864 23.1123 28.8034 22.7667 28.8261 22.404C28.8601 22.0413 28.9111 21.775 28.9791 21.605C29.0584 21.435 29.1548 21.265 29.2681 21.095C29.3928 20.9137 29.5514 20.789 29.7441 20.721C30.1634 20.5737 30.7018 20.5 31.3591 20.5H31.3931ZM40.983 20.5H43.363C44.5983 20.5 45.216 21.1063 45.216 22.319V29H43.278C43.0966 29 42.9493 28.9377 42.836 28.813C42.7226 28.6883 42.666 28.524 42.666 28.32V22.285C42.666 22.1037 42.6206 21.9733 42.53 21.894C42.4506 21.8147 42.2636 21.775 41.969 21.775H40.983V20.5ZM38.008 20.5H39.045C39.5436 20.5 39.9176 20.6247 40.167 20.874C40.4276 21.112 40.558 21.4237 40.558 21.809V29H38.62C38.4386 29 38.2913 28.9377 38.178 28.813C38.0646 28.6883 38.008 28.524 38.008 28.32V20.5ZM50.1304 20.5H52.5104C53.7458 20.5 54.3634 21.1063 54.3634 22.319V29H52.4254C52.2441 29 52.0968 28.9377 51.9834 28.813C51.8701 28.6883 51.8134 28.524 51.8134 28.32V22.285C51.8134 22.1037 51.7681 21.9733 51.6774 21.894C51.5981 21.8147 51.4111 21.775 51.1164 21.775H50.1304V20.5ZM47.1554 20.5H48.1924C48.6911 20.5 49.0651 20.6247 49.3144 20.874C49.5751 21.112 49.7054 21.4237 49.7054 21.809V29H47.7674C47.5861 29 47.4388 28.9377 47.3254 28.813C47.2121 28.6883 47.1554 28.524 47.1554 28.32V20.5ZM58.8189 29H58.7849C57.6629 29 56.9716 28.8073 56.7109 28.422C56.5862 28.2407 56.4842 28.065 56.4049 27.895C56.3369 27.725 56.2916 27.4587 56.2689 27.096C56.2122 26.4387 56.1839 25.7077 56.1839 24.903C56.1839 24.0983 56.1896 23.5203 56.2009 23.169C56.2122 22.8063 56.2462 22.4437 56.3029 22.081C56.3709 21.707 56.4559 21.4407 56.5579 21.282C56.6599 21.112 56.8129 20.959 57.0169 20.823C57.2209 20.687 57.4589 20.602 57.7309 20.568C58.0029 20.5227 58.3542 20.5 58.7849 20.5H58.8189V29ZM63.3409 26.314V27.181C63.3409 28.3937 62.7232 29 61.4879 29H59.3459V27.725H60.2639C60.5019 27.725 60.6492 27.691 60.7059 27.623C60.7626 27.5437 60.7909 27.4077 60.7909 27.215V26.671C60.7909 26.501 60.8079 26.4047 60.8419 26.382C60.8872 26.3593 60.9156 26.348 60.9269 26.348C60.9382 26.3367 60.9666 26.331 61.0119 26.331C61.0686 26.3197 61.1082 26.314 61.1309 26.314C61.8676 26.314 62.6042 26.314 63.3409 26.314ZM59.3459 20.5H61.3179C62.0999 20.5 62.6326 20.653 62.9159 20.959C63.1992 21.265 63.3409 21.7183 63.3409 22.319V23.815C63.3409 24.835 62.7856 25.345 61.6749 25.345H59.1759V24.07H60.0939C60.3659 24.07 60.5472 24.036 60.6379 23.968C60.7399 23.9 60.7909 23.7697 60.7909 23.577V22.285C60.7909 22.0923 60.7626 21.962 60.7059 21.894C60.6492 21.8147 60.5019 21.775 60.2639 21.775H59.3459V20.5ZM67.6509 29H67.6169C66.4949 29 65.8036 28.8073 65.5429 28.422C65.4183 28.2407 65.3163 28.065 65.2369 27.895C65.1689 27.725 65.1236 27.4587 65.1009 27.096C65.0443 26.4387 65.0159 25.7077 65.0159 24.903C65.0159 24.0983 65.0216 23.5203 65.0329 23.169C65.0443 22.8063 65.0783 22.4437 65.1349 22.081C65.2029 21.707 65.2879 21.4407 65.3899 21.282C65.4919 21.112 65.6449 20.959 65.8489 20.823C66.0529 20.687 66.2909 20.602 66.5629 20.568C66.8349 20.5227 67.1863 20.5 67.6169 20.5H67.6509V29ZM69.6229 26.314C70.3823 26.314 70.9603 26.314 71.3569 26.314C71.7536 26.314 71.9576 26.3197 71.9689 26.331C71.9803 26.331 71.9973 26.3367 72.0199 26.348C72.0539 26.348 72.0766 26.3537 72.0879 26.365C72.0993 26.3763 72.1106 26.3933 72.1219 26.416C72.1333 26.4273 72.1389 26.45 72.1389 26.484C72.1616 26.5633 72.1729 26.6257 72.1729 26.671V27.181C72.1729 28.3937 71.5553 29 70.3199 29H68.1779V27.725H69.0959C69.3339 27.725 69.4813 27.691 69.5379 27.623C69.5946 27.5437 69.6229 27.4077 69.6229 27.215V26.314ZM68.1779 20.5H70.3199C71.5553 20.5 72.1729 21.1063 72.1729 22.319V23.475C71.4136 23.475 70.8356 23.475 70.4389 23.475C70.0423 23.475 69.8383 23.475 69.8269 23.475C69.8156 23.4637 69.7929 23.458 69.7589 23.458C69.7363 23.4467 69.7193 23.4353 69.7079 23.424C69.6966 23.4127 69.6853 23.4013 69.6739 23.39C69.6626 23.3673 69.6569 23.3447 69.6569 23.322C69.6343 23.2313 69.6229 23.1633 69.6229 23.118V22.285C69.6229 22.0923 69.5946 21.962 69.5379 21.894C69.4813 21.8147 69.3339 21.775 69.0959 21.775H68.1779V20.5ZM78.2019 28.864C78.2019 28.932 78.1679 28.9773 78.0999 29H76.8079C75.9806 29 75.3799 28.8357 75.0059 28.507C74.6319 28.1783 74.4449 27.6003 74.4449 26.773V21.809H73.5779C73.2946 21.809 73.1529 21.639 73.1529 21.299V20.5H74.4449V16.709H75.4819C75.9806 16.709 76.3546 16.8337 76.6039 17.083C76.8646 17.3323 76.9949 17.6497 76.9949 18.035V27.079C76.9949 27.4983 77.2329 27.708 77.7089 27.708H78.0659C78.1566 27.708 78.2019 27.7477 78.2019 27.827V28.864ZM78.7289 20.5V21.299C78.7289 21.639 78.5873 21.809 78.3039 21.809H77.4199V20.5H78.7289Z" fill="url(#paint0_linear_601_17089)"/>
<path d="M9.68778 17.912C9.11578 17.912 8.49978 17.8753 7.83978 17.802C7.19445 17.7287 6.44645 17.6847 5.59578 17.67C5.50778 17.6553 5.37578 17.648 5.19978 17.648C5.03845 17.648 4.84045 17.648 4.60578 17.648C4.29778 17.6627 3.79911 17.6773 3.10978 17.692C2.43511 17.7067 1.75311 17.714 1.06378 17.714H0.645781L0.887781 17.34C0.887781 17.34 0.924448 17.34 0.997781 17.34C1.08578 17.34 1.14445 17.3473 1.17378 17.362C1.46711 17.362 1.73111 17.3693 1.96578 17.384C2.20045 17.384 2.41311 17.384 2.60378 17.384C3.01445 17.384 3.33711 17.362 3.57178 17.318C3.80645 17.2593 3.99711 17.1493 4.14378 16.988C4.29045 16.812 4.41511 16.5553 4.51778 16.218C4.63511 15.8807 4.78178 15.4333 4.95778 14.876C5.19245 14.0987 5.40511 13.3067 5.59578 12.5C5.80111 11.6787 5.97711 10.894 6.12378 10.146C6.27045 9.38333 6.38778 8.70867 6.47578 8.122C6.56378 7.52067 6.62245 7.066 6.65178 6.758C6.66645 6.626 6.68111 6.472 6.69578 6.296C6.72511 6.12 6.73978 5.93667 6.73978 5.746C6.73978 5.45267 6.69578 5.18867 6.60778 4.954C6.51978 4.71933 6.33645 4.58 6.05778 4.536C5.94045 4.50667 5.74245 4.492 5.46378 4.492C5.19978 4.47733 4.92111 4.47 4.62778 4.47C4.34911 4.45533 4.10711 4.448 3.90178 4.448H3.39578L3.61578 4.096L4.01178 4.074C4.17311 4.05933 4.33445 4.052 4.49578 4.052C4.65711 4.052 4.81111 4.052 4.95778 4.052C5.58845 4.052 6.18978 4.074 6.76178 4.118C7.34845 4.14733 7.91311 4.162 8.45578 4.162H8.91778C9.56311 4.162 10.2158 4.118 10.8758 4.03C11.5504 3.942 12.2031 3.898 12.8338 3.898C13.5964 3.898 14.3224 4.03 15.0118 4.294C15.7158 4.54333 16.3538 5.05667 16.9258 5.834C17.3951 6.46467 17.7251 7.088 17.9158 7.704C18.1064 8.32 18.2018 8.92867 18.2018 9.53C18.2018 10.542 17.9744 11.4733 17.5198 12.324C17.0651 13.16 16.5591 13.8347 16.0018 14.348L14.3298 15.888C13.4351 16.7093 12.6284 17.252 11.9098 17.516C11.2058 17.78 10.4651 17.912 9.68778 17.912ZM9.77578 17.01C10.2158 17.01 10.6558 16.9513 11.0958 16.834C11.5504 16.702 11.9684 16.548 12.3498 16.372C12.7311 16.196 13.0244 16.02 13.2298 15.844C14.1244 15.1253 14.7844 14.282 15.2098 13.314C15.6498 12.346 15.8698 11.3633 15.8698 10.366C15.8698 9.31 15.6204 8.30533 15.1218 7.352C14.6378 6.39867 13.9118 5.636 12.9438 5.064C12.6651 4.90267 12.3791 4.778 12.0858 4.69C11.7924 4.58733 11.4991 4.536 11.2058 4.536C10.7951 4.536 10.4138 4.646 10.0618 4.866C9.72445 5.07133 9.44578 5.42333 9.22578 5.922C8.99111 6.43533 8.77845 7.05133 8.58778 7.77C8.41178 8.474 8.25045 9.19267 8.10378 9.926C7.95711 10.6447 7.83245 11.3047 7.72978 11.906C7.64178 12.4927 7.57578 12.94 7.53178 13.248C7.44378 13.7027 7.39978 14.1133 7.39978 14.48C7.39978 15.4333 7.63445 16.0933 8.10378 16.46C8.58778 16.8267 9.14512 17.01 9.77578 17.01ZM24.6416 11.51L24.3776 11.334C24.4069 11.1873 24.4289 11.0553 24.4436 10.938C24.4729 10.806 24.4876 10.6813 24.4876 10.564C24.4876 10.0947 24.3483 9.73533 24.0696 9.486C23.8056 9.23667 23.4536 9.112 23.0136 9.112C22.6029 9.112 22.1263 9.23667 21.5836 9.486L21.4736 9.31C22.1629 8.914 22.8009 8.606 23.3876 8.386C23.9889 8.166 24.5609 8.056 25.1036 8.056H25.1916C25.3529 8.056 25.4336 8.144 25.4336 8.32C25.4336 8.51067 25.3969 8.738 25.3236 9.002C25.2503 9.25133 25.1696 9.51533 25.0816 9.794C25.0229 9.94067 24.9716 10.0873 24.9276 10.234C24.8836 10.366 24.8469 10.5053 24.8176 10.652C24.7149 11.0187 24.6563 11.3047 24.6416 11.51ZM19.8456 18.022C19.4056 18.022 18.9949 17.956 18.6136 17.824C18.2323 17.692 17.9609 17.4573 17.7996 17.12C17.6969 16.9147 17.6236 16.68 17.5796 16.416C17.5503 16.1373 17.5356 15.8513 17.5356 15.558C17.5356 15.03 17.5869 14.4727 17.6896 13.886C17.8069 13.2847 17.9389 12.7347 18.0856 12.236C18.3936 11.2387 18.7383 10.476 19.1196 9.948C19.5009 9.42 20.0216 9.03867 20.6816 8.804C20.7843 8.77467 20.9456 8.716 21.1656 8.628C21.4003 8.54 21.6349 8.452 21.8696 8.364C22.1189 8.26133 22.3169 8.188 22.4636 8.144L22.4856 8.408L21.1876 9.112C20.9969 9.21467 20.7989 9.44933 20.5936 9.816C20.3883 10.168 20.1976 10.5933 20.0216 11.092C19.8456 11.5907 19.6843 12.104 19.5376 12.632L20.9236 11.972C21.0996 11.928 21.2903 11.906 21.4956 11.906C21.6863 11.906 21.8696 11.9207 22.0456 11.95C22.2363 11.9793 22.4269 12.0087 22.6176 12.038C22.9549 12.082 23.2996 12.104 23.6516 12.104C23.7983 12.104 23.9449 12.0967 24.0916 12.082C24.2529 12.0673 24.4069 12.0453 24.5536 12.016L24.6416 12.17L22.5956 13.182C22.5076 13.1967 22.4196 13.2113 22.3316 13.226C22.2583 13.226 22.1776 13.226 22.0896 13.226C21.7376 13.226 21.3783 13.182 21.0116 13.094C20.6596 13.006 20.3076 12.962 19.9556 12.962C19.8676 12.962 19.7796 12.962 19.6916 12.962C19.6183 12.962 19.5376 12.9767 19.4496 13.006C19.3763 13.358 19.3103 13.7027 19.2516 14.04C19.2076 14.3627 19.1856 14.6707 19.1856 14.964C19.1856 15.4187 19.2516 15.7927 19.3836 16.086C19.5743 16.4967 19.8529 16.8193 20.2196 17.054C20.5863 17.274 20.9896 17.384 21.4296 17.384C22.0749 17.384 22.7129 17.12 23.3436 16.592C23.9743 16.064 24.4289 15.2133 24.7076 14.04L25.0156 14.26C24.8836 14.6267 24.7443 15.03 24.5976 15.47C24.4509 15.8953 24.3189 16.416 24.2016 17.032C24.0549 17.2667 23.8716 17.4207 23.6516 17.494C23.4316 17.5673 23.1823 17.604 22.9036 17.604C22.8009 17.604 22.6836 17.604 22.5516 17.604C22.4196 17.5893 22.2876 17.582 22.1556 17.582C21.9503 17.6847 21.6276 17.7873 21.1876 17.89C20.7623 17.978 20.3149 18.022 19.8456 18.022ZM33.7633 8.716C33.294 8.76 32.9053 8.716 32.5973 8.584C32.2893 8.452 31.9447 8.386 31.5633 8.386C31.3433 8.386 31.1013 8.43 30.8373 8.518L30.7713 8.276C31.1233 8.1 31.4973 7.93867 31.8933 7.792C32.304 7.64533 32.6927 7.572 33.0593 7.572C33.294 7.572 33.5213 7.594 33.7413 7.638C33.9613 7.682 34.1887 7.726 34.4233 7.77C34.5847 7.78467 34.746 7.80667 34.9073 7.836C35.0687 7.85067 35.2373 7.858 35.4133 7.858C35.5453 7.858 35.6847 7.85067 35.8313 7.836C35.9927 7.82133 36.154 7.79933 36.3153 7.77L36.4033 7.924C36.4033 7.924 36.286 7.96067 36.0513 8.034C35.8313 8.10733 35.56 8.19533 35.2373 8.298C34.9147 8.40067 34.614 8.496 34.3353 8.584C34.0567 8.65733 33.866 8.70133 33.7633 8.716ZM31.0353 18.22C31.0207 18.1467 31.0133 18.0587 31.0133 17.956C31.0133 17.8533 31.0133 17.7433 31.0133 17.626C31.0133 17.186 31.0427 16.6507 31.1013 16.02C31.1747 15.3893 31.27 14.744 31.3873 14.084C31.5047 13.4093 31.6367 12.7933 31.7833 12.236C32.0767 11.2387 32.3847 10.476 32.7073 9.948C33.0447 9.42 33.5433 9.03867 34.2033 8.804C34.2767 8.77467 34.4087 8.73067 34.5993 8.672C34.8047 8.59867 35.0173 8.518 35.2373 8.43C35.4573 8.342 35.648 8.26867 35.8093 8.21C35.9707 8.15133 36.0513 8.122 36.0513 8.122L36.1393 8.32L35.5453 8.584C35.2813 8.70133 35.01 8.94333 34.7313 9.31C34.4527 9.662 34.196 10.08 33.9613 10.564C33.7267 11.0333 33.5433 11.51 33.4113 11.994C33.2647 12.5807 33.14 13.1967 33.0373 13.842C32.9347 14.4727 32.854 15.0667 32.7953 15.624C33.118 15.1693 33.47 14.7073 33.8513 14.238C34.2327 13.754 34.6287 13.3067 35.0393 12.896C35.4647 12.4707 35.8753 12.126 36.2713 11.862L36.4473 12.082C36.0807 12.302 35.6993 12.654 35.3033 13.138C34.9073 13.622 34.526 14.1427 34.1593 14.7C33.8073 15.2573 33.5067 15.778 33.2573 16.262C33.008 16.746 32.8467 17.1127 32.7733 17.362L31.0353 18.22ZM25.9093 18.22C25.8947 18.1467 25.8873 18.0587 25.8873 17.956C25.8873 17.8533 25.8873 17.7433 25.8873 17.626C25.8873 17.186 25.9167 16.6507 25.9753 16.02C26.0487 15.3893 26.144 14.744 26.2613 14.084C26.3787 13.4093 26.5107 12.7933 26.6573 12.236C26.9507 11.224 27.288 10.4613 27.6693 9.948C28.0653 9.42 28.5933 9.03867 29.2533 8.804C29.4 8.76 29.598 8.694 29.8473 8.606C30.0967 8.50333 30.3387 8.41533 30.5733 8.342L30.6613 8.584L30.0233 8.914C29.7593 9.06067 29.4733 9.42733 29.1653 10.014C28.8573 10.6007 28.6007 11.2607 28.3953 11.994C28.278 12.4633 28.1607 12.9547 28.0433 13.468C27.9407 13.9813 27.8527 14.48 27.7793 14.964C27.7793 14.9933 27.8013 15.008 27.8453 15.008C27.9187 15.008 28.0213 14.9787 28.1533 14.92C28.2853 14.8613 28.3587 14.8247 28.3733 14.81C28.5347 14.7073 28.7253 14.5753 28.9453 14.414C29.18 14.238 29.4147 14.04 29.6493 13.82C30.1333 13.38 30.5807 12.8887 30.9913 12.346C31.4167 11.7887 31.6807 11.2607 31.7833 10.762C31.7833 10.7327 31.8273 10.7253 31.9153 10.74C32.018 10.74 32.0693 10.74 32.0693 10.74C31.9667 11.3853 31.6807 12.0087 31.2113 12.61C30.742 13.2113 30.2507 13.7907 29.7373 14.348C29.5027 14.5973 29.2607 14.854 29.0113 15.118C28.7767 15.3673 28.5567 15.6387 28.3513 15.932C28.1607 16.1813 28.0067 16.4233 27.8893 16.658C27.7867 16.8927 27.7353 17.12 27.7353 17.34L25.9093 18.22ZM36.1033 18.22C36.1619 17.7507 36.2353 17.142 36.3233 16.394C36.4259 15.646 36.5579 14.8173 36.7193 13.908C36.8806 12.9987 37.0713 12.06 37.2913 11.092C37.5113 10.124 37.7679 9.18533 38.0613 8.276C38.3693 7.36667 38.7139 6.54533 39.0953 5.812C39.4913 5.064 39.9239 4.46267 40.3933 4.008C40.8773 3.53867 41.4126 3.26733 41.9992 3.194C42.1019 3.17933 42.2926 3.14267 42.5713 3.084C42.8499 3.01067 43.1139 2.94467 43.3633 2.886C43.6126 2.81267 43.7373 2.776 43.7373 2.776L43.7593 2.93L43.2313 3.238C42.5566 3.634 41.9553 4.206 41.4273 4.954C40.8993 5.68733 40.4373 6.52333 40.0413 7.462C39.6453 8.386 39.3006 9.34667 39.0073 10.344C38.7286 11.3413 38.4939 12.302 38.3033 13.226C38.1273 14.1353 37.9806 14.9347 37.8633 15.624C38.3326 14.9347 38.8753 14.238 39.4913 13.534C40.1219 12.8153 40.7379 12.258 41.3392 11.862L41.5153 12.082C41.1486 12.302 40.7673 12.654 40.3713 13.138C39.9753 13.622 39.5939 14.1427 39.2273 14.7C38.8753 15.2573 38.5746 15.778 38.3253 16.262C38.0759 16.746 37.9146 17.1127 37.8413 17.362L36.1033 18.22ZM45.4973 6.23L45.2553 5.988C45.3433 5.636 45.3873 5.328 45.3873 5.064C45.3873 4.59467 45.2699 4.23533 45.0353 3.986C44.8153 3.73667 44.5073 3.612 44.1113 3.612C43.7593 3.612 43.3486 3.722 42.8793 3.942L42.7693 3.766C43.2533 3.48733 43.6713 3.282 44.0233 3.15C44.3899 3.018 44.7419 2.93 45.0793 2.886C45.4166 2.82733 45.7906 2.79067 46.2013 2.776L46.2673 2.842C46.2819 2.87133 46.2893 2.93733 46.2893 3.04C46.2893 3.23067 46.2526 3.458 46.1793 3.722C46.1059 3.986 46.0253 4.25 45.9373 4.514C45.8786 4.67533 45.8199 4.83667 45.7613 4.998C45.7026 5.14467 45.6586 5.29133 45.6293 5.438C45.5853 5.58467 45.5486 5.724 45.5193 5.856C45.4899 5.97333 45.4826 6.098 45.4973 6.23ZM49.2412 11.51L48.9772 11.334C49.0065 11.1873 49.0285 11.0553 49.0432 10.938C49.0725 10.806 49.0872 10.6813 49.0872 10.564C49.0872 10.0947 48.9479 9.73533 48.6692 9.486C48.4052 9.23667 48.0532 9.112 47.6132 9.112C47.2025 9.112 46.7259 9.23667 46.1832 9.486L46.0732 9.31C46.7625 8.914 47.4005 8.606 47.9872 8.386C48.5885 8.166 49.1605 8.056 49.7032 8.056H49.7912C49.9525 8.056 50.0332 8.144 50.0332 8.32C50.0332 8.51067 49.9965 8.738 49.9232 9.002C49.8499 9.25133 49.7692 9.51533 49.6812 9.794C49.6225 9.94067 49.5712 10.0873 49.5272 10.234C49.4832 10.366 49.4465 10.5053 49.4172 10.652C49.3145 11.0187 49.2559 11.3047 49.2412 11.51ZM44.4452 18.022C44.0052 18.022 43.5945 17.956 43.2132 17.824C42.8319 17.692 42.5605 17.4573 42.3992 17.12C42.2965 16.9147 42.2232 16.68 42.1792 16.416C42.1499 16.1373 42.1352 15.8513 42.1352 15.558C42.1352 15.03 42.1865 14.4727 42.2892 13.886C42.4065 13.2847 42.5385 12.7347 42.6852 12.236C42.9932 11.2387 43.3379 10.476 43.7192 9.948C44.1005 9.42 44.6212 9.03867 45.2812 8.804C45.3839 8.77467 45.5452 8.716 45.7652 8.628C45.9999 8.54 46.2345 8.452 46.4692 8.364C46.7185 8.26133 46.9165 8.188 47.0632 8.144L47.0852 8.408L45.7872 9.112C45.5965 9.21467 45.3985 9.44933 45.1932 9.816C44.9879 10.168 44.7972 10.5933 44.6212 11.092C44.4452 11.5907 44.2839 12.104 44.1372 12.632L45.5232 11.972C45.6992 11.928 45.8899 11.906 46.0952 11.906C46.2859 11.906 46.4692 11.9207 46.6452 11.95C46.8359 11.9793 47.0265 12.0087 47.2172 12.038C47.5545 12.082 47.8992 12.104 48.2512 12.104C48.3979 12.104 48.5445 12.0967 48.6912 12.082C48.8525 12.0673 49.0065 12.0453 49.1532 12.016L49.2412 12.17L47.1952 13.182C47.1072 13.1967 47.0192 13.2113 46.9312 13.226C46.8579 13.226 46.7772 13.226 46.6892 13.226C46.3372 13.226 45.9779 13.182 45.6112 13.094C45.2592 13.006 44.9072 12.962 44.5552 12.962C44.4672 12.962 44.3792 12.962 44.2912 12.962C44.2179 12.962 44.1372 12.9767 44.0492 13.006C43.9759 13.358 43.9099 13.7027 43.8512 14.04C43.8072 14.3627 43.7852 14.6707 43.7852 14.964C43.7852 15.4187 43.8512 15.7927 43.9832 16.086C44.1739 16.4967 44.4525 16.8193 44.8192 17.054C45.1859 17.274 45.5892 17.384 46.0292 17.384C46.6745 17.384 47.3125 17.12 47.9432 16.592C48.5739 16.064 49.0285 15.2133 49.3072 14.04L49.6152 14.26C49.4832 14.6267 49.3439 15.03 49.1972 15.47C49.0505 15.8953 48.9185 16.416 48.8012 17.032C48.6545 17.2667 48.4712 17.4207 48.2512 17.494C48.0312 17.5673 47.7819 17.604 47.5032 17.604C47.4005 17.604 47.2832 17.604 47.1512 17.604C47.0192 17.5893 46.8872 17.582 46.7552 17.582C46.5499 17.6847 46.2272 17.7873 45.7872 17.89C45.3619 17.978 44.9145 18.022 44.4452 18.022ZM52.555 17.032C52.687 16.4453 52.8556 15.7413 53.061 14.92C53.281 14.084 53.5376 13.2407 53.831 12.39C54.1243 11.5247 54.4543 10.74 54.821 10.036C55.1876 9.31733 55.5836 8.782 56.009 8.43C56.273 8.19533 56.581 8.04867 56.933 7.99C57.285 7.93133 57.6443 7.89467 58.011 7.88C58.3483 7.85067 58.693 7.814 59.045 7.77C59.4116 7.726 59.7416 7.60867 60.035 7.418L60.255 7.528L58.803 9.31C58.4803 9.51533 58.1723 9.64733 57.879 9.706C57.5856 9.75 57.3143 9.78667 57.065 9.816C56.8303 9.83067 56.5956 9.84533 56.361 9.86C56.1263 9.86 55.9063 9.91867 55.701 10.036C55.4223 10.1827 55.1436 10.476 54.865 10.916C54.5863 11.356 54.3003 12.038 54.007 12.962C53.7136 13.886 53.3983 15.1547 53.061 16.768L52.555 17.032ZM50.355 18.22C50.5456 17.3987 50.7656 16.5333 51.015 15.624C51.2643 14.7 51.4916 13.82 51.697 12.984C51.873 12.2947 52.0123 11.664 52.115 11.092C52.2323 10.5053 52.291 10.0287 52.291 9.662C52.291 9.58867 52.291 9.52267 52.291 9.464C52.291 9.39067 52.2836 9.32467 52.269 9.266C52.2103 9.28067 52.1443 9.31 52.071 9.354C52.0123 9.38333 51.9463 9.41267 51.873 9.442L51.103 9.838L51.037 9.486C51.5063 9.23667 52.0196 8.92867 52.577 8.562C53.149 8.19533 53.6256 7.88 54.007 7.616C54.1096 7.77733 54.161 8.04133 54.161 8.408C54.161 8.804 54.1096 9.29533 54.007 9.882C53.9043 10.454 53.7723 11.07 53.611 11.73C53.391 12.6833 53.149 13.6733 52.885 14.7C52.621 15.712 52.3936 16.6287 52.203 17.45L50.355 18.22Z" fill="#0D4E9B"/>
<defs>
<linearGradient id="paint0_linear_601_17089" x1="75.56" y1="34.5536" x2="73.1511" y2="5.85872" gradientUnits="userSpaceOnUse">
<stop stop-color="#059494"/>
<stop offset="1" stop-color="#025CA8"/>
</linearGradient>
</defs>
</svg>
