<svg width="15" height="15" viewBox="0 0 15 15" fill="none" xmlns="http://www.w3.org/2000/svg">
<mask id="path-1-inside-1_2674_111" fill="white">
<path d="M9.54496 14.3372V10.3635C9.54496 10.1879 9.47312 10.0194 9.34526 9.89521C9.21739 9.77101 9.04397 9.70124 8.86314 9.70124H6.13586C5.95503 9.70124 5.78161 9.77101 5.65375 9.89521C5.52588 10.0194 5.45405 10.1879 5.45405 10.3635V14.3372C5.45405 14.5128 5.38222 14.6813 5.25438 14.8055C5.12653 14.9297 4.95313 14.9995 4.77231 14.9995L0.681903 15C0.592359 15 0.503688 14.9829 0.420957 14.9496C0.338225 14.9163 0.263052 14.8675 0.19973 14.8061C0.136408 14.7446 0.0861783 14.6715 0.0519084 14.5912C0.0176385 14.5108 -6.99564e-10 14.4247 0 14.3377V6.68352C-1.12897e-08 6.59125 0.0198487 6.5 0.0582738 6.41562C0.0966989 6.33124 0.152852 6.25559 0.223134 6.19352L7.04085 0.172268C7.16635 0.0614266 7.32988 5.51112e-06 7.49951 3.70853e-10C7.66913 -5.51038e-06 7.83267 0.0614051 7.95818 0.172238L14.7768 6.19351C14.8471 6.25559 14.9033 6.33124 14.9417 6.41563C14.9801 6.50001 15 6.59127 15 6.68355V14.3377C15 14.4247 14.9824 14.5108 14.9481 14.5912C14.9138 14.6715 14.8636 14.7446 14.8003 14.8061C14.7369 14.8676 14.6618 14.9163 14.579 14.9496C14.4963 14.9829 14.4076 15 14.3181 15L10.2267 14.9995C10.0459 14.9995 9.87247 14.9297 9.74462 14.8055C9.61678 14.6813 9.54495 14.5128 9.54496 14.3372Z"/>
</mask>
<path d="M5.45405 14.3372H4.15405H5.45405ZM4.77231 14.9995L4.77216 13.6995H4.77215L4.77231 14.9995ZM0.681903 15L0.682061 16.3H0.68207L0.681903 15ZM0 14.3377H1.3H0ZM0 6.68352H1.3H0ZM0.223134 6.19352L-0.637425 5.21913H-0.637425L0.223134 6.19352ZM7.04085 0.172268L7.90141 1.14666L7.90141 1.14666L7.04085 0.172268ZM7.95818 0.172238L8.81868 -0.802209L7.95818 0.172238ZM14.7768 6.19351L15.6373 5.21907V5.21907L14.7768 6.19351ZM15 6.68355L13.7 6.68354V6.68355H15ZM15 14.3377H13.7H15ZM14.3181 15L14.3179 16.3H14.3179L14.3181 15ZM10.2267 14.9995L10.2269 13.6995H10.2268L10.2267 14.9995ZM10.845 14.3372V10.3635H8.24496V14.3372H10.845ZM10.845 10.3635C10.845 9.83068 10.6267 9.32759 10.251 8.9627L8.43948 10.8277C8.31955 10.7112 8.24496 10.545 8.24496 10.3635H10.845ZM10.251 8.9627C9.87666 8.59906 9.37675 8.40124 8.86314 8.40124V11.0012C8.71119 11.0012 8.55812 10.943 8.43948 10.8277L10.251 8.9627ZM8.86314 8.40124H6.13586V11.0012H8.86314V8.40124ZM6.13586 8.40124C5.62225 8.40124 5.12234 8.59906 4.74797 8.9627L6.55952 10.8277C6.44088 10.943 6.28782 11.0012 6.13586 11.0012V8.40124ZM4.74797 8.9627C4.37232 9.32759 4.15405 9.83067 4.15405 10.3635H6.75405C6.75405 10.545 6.67945 10.7112 6.55952 10.8277L4.74797 8.9627ZM4.15405 10.3635V14.3372H6.75405V10.3635H4.15405ZM4.15405 14.3372C4.15405 14.1557 4.22863 13.9895 4.34854 13.873L6.16021 15.7379C6.53581 15.373 6.75405 14.87 6.75405 14.3372H4.15405ZM4.34854 13.873C4.46717 13.7578 4.62022 13.6995 4.77216 13.6995L4.77247 16.2995C5.28604 16.2994 5.78589 16.1016 6.16021 15.7379L4.34854 13.873ZM4.77215 13.6995L0.681737 13.7L0.68207 16.3L4.77248 16.2995L4.77215 13.6995ZM0.681746 13.7C0.757765 13.7 0.833887 13.7145 0.906083 13.7435L-0.0641696 16.1557C0.17349 16.2513 0.426952 16.3 0.682061 16.3L0.681746 13.7ZM0.906083 13.7435C0.978333 13.7726 1.0464 13.8161 1.10544 13.8735L-0.705985 15.7386C-0.520292 15.919 -0.301884 16.0601 -0.0641696 16.1557L0.906083 13.7435ZM1.10544 13.8735C1.16457 13.9309 1.21356 14.0011 1.2477 14.0812L-1.14388 15.1012C-1.0412 15.3419 -0.891756 15.5582 -0.705985 15.7386L1.10544 13.8735ZM1.2477 14.0812C1.28188 14.1614 1.3 14.2486 1.3 14.3377H-1.3C-1.3 14.6008 -1.24661 14.8603 -1.14388 15.1012L1.2477 14.0812ZM1.3 14.3377V6.68352H-1.3V14.3377H1.3ZM1.3 6.68352C1.3 6.77807 1.2796 6.87045 1.24138 6.95438L-1.12483 5.87686C-1.2399 6.12955 -1.3 6.40444 -1.3 6.68352H1.3ZM1.24138 6.95438C1.20322 7.03819 1.14874 7.11046 1.08369 7.16791L-0.637425 5.21913C-0.84304 5.40072 -1.00982 5.62429 -1.12483 5.87686L1.24138 6.95438ZM1.08369 7.16791L7.90141 1.14666L6.18029 -0.802122L-0.637425 5.21913L1.08369 7.16791ZM7.90141 1.14666C7.78596 1.24862 7.64231 1.3 7.49955 1.3L7.49947 -1.3C7.01746 -1.29998 6.54674 -1.12577 6.18029 -0.802122L7.90141 1.14666ZM7.49955 1.3C7.35679 1.3 7.21314 1.24864 7.09769 1.14669L8.81868 -0.802209C8.4522 -1.12583 7.98147 -1.30002 7.49947 -1.3L7.49955 1.3ZM7.09769 1.14669L13.9163 7.16796L15.6373 5.21907L8.81868 -0.802209L7.09769 1.14669ZM13.9163 7.16796C13.8513 7.11051 13.7968 7.03824 13.7586 6.95442L16.1248 5.87683C16.0098 5.62424 15.843 5.40066 15.6373 5.21907L13.9163 7.16796ZM13.7586 6.95442C13.7204 6.87049 13.7 6.7781 13.7 6.68354L16.3 6.68355C16.3 6.40444 16.2399 6.12954 16.1248 5.87683L13.7586 6.95442ZM13.7 6.68355V14.3377H16.3V6.68355H13.7ZM13.7 14.3377C13.7 14.2486 13.7181 14.1614 13.7523 14.0812L16.1439 15.1012C16.2466 14.8603 16.3 14.6008 16.3 14.3377H13.7ZM13.7523 14.0812C13.7864 14.0011 13.8354 13.9309 13.8946 13.8735L15.706 15.7386C15.8917 15.5582 16.0412 15.3419 16.1439 15.1012L13.7523 14.0812ZM13.8946 13.8735C13.9536 13.8161 14.0217 13.7726 14.0939 13.7435L15.0642 16.1557C15.3019 16.0601 15.5203 15.919 15.706 15.7386L13.8946 13.8735ZM14.0939 13.7435C14.1661 13.7145 14.2422 13.7 14.3183 13.7L14.3179 16.3C14.573 16.3 14.8265 16.2513 15.0642 16.1557L14.0939 13.7435ZM14.3183 13.7L10.2269 13.6995L10.2265 16.2995L14.3179 16.3L14.3183 13.7ZM10.2268 13.6995C10.3788 13.6995 10.5318 13.7578 10.6505 13.873L8.83879 15.7379C9.21311 16.1016 9.71297 16.2994 10.2265 16.2995L10.2268 13.6995ZM10.6505 13.873C10.7704 13.9895 10.845 14.1557 10.845 14.3372L8.24496 14.3372C8.24495 14.87 8.46318 15.373 8.83879 15.7379L10.6505 13.873Z" fill="#595959" mask="url(#path-1-inside-1_2674_111)"/>
</svg>
