<svg width="15" height="15" viewBox="0 0 15 15" fill="none" xmlns="http://www.w3.org/2000/svg">
<path d="M7.50351 10.2632C8.26433 10.2632 8.91447 9.99225 9.45395 9.45043C9.99342 8.90864 10.2632 8.25733 10.2632 7.49649C10.2632 6.73567 9.99225 6.08553 9.45043 5.54605C8.90864 5.00658 8.25733 4.73684 7.49649 4.73684C6.73567 4.73684 6.08553 5.00775 5.54605 5.54956C5.00658 6.09135 4.73684 6.74267 4.73684 7.50351C4.73684 8.26433 5.00775 8.91447 5.54957 9.45395C6.09135 9.99342 6.74267 10.2632 7.50351 10.2632ZM5.92105 2.36842H9.07895C9.41447 2.36842 9.69572 2.25 9.9227 2.01316C10.1497 1.77632 10.2632 1.49342 10.2632 1.16447C10.2632 0.835526 10.1497 0.559211 9.9227 0.335526C9.69572 0.111842 9.41447 0 9.07895 0H5.92105C5.60526 0 5.32895 0.113487 5.09211 0.340461C4.85526 0.567434 4.73684 0.848684 4.73684 1.18421C4.73684 1.5 4.85526 1.77632 5.09211 2.01316C5.32895 2.25 5.60526 2.36842 5.92105 2.36842ZM5.92105 15H9.07895C9.41447 15 9.69572 14.8816 9.9227 14.6447C10.1497 14.4079 10.2632 14.125 10.2632 13.7961C10.2632 13.4671 10.1497 13.1908 9.9227 12.9671C9.69572 12.7434 9.41447 12.6316 9.07895 12.6316H5.92105C5.60526 12.6316 5.32895 12.7451 5.09211 12.972C4.85526 13.199 4.73684 13.4803 4.73684 13.8158C4.73684 14.1316 4.85526 14.4079 5.09211 14.6447C5.32895 14.8816 5.60526 15 5.92105 15ZM13.8355 10.2632C14.1645 10.2632 14.4408 10.1447 14.6645 9.9079C14.8882 9.67105 15 9.39474 15 9.07895V5.92105C15 5.58553 14.8865 5.30428 14.6595 5.0773C14.4326 4.85033 14.1513 4.73684 13.8158 4.73684C13.5 4.73684 13.2237 4.85033 12.9868 5.0773C12.75 5.30428 12.6316 5.58553 12.6316 5.92105V9.07895C12.6316 9.39474 12.75 9.67105 12.9868 9.9079C13.2237 10.1447 13.5066 10.2632 13.8355 10.2632ZM1.20395 10.2632C1.5329 10.2632 1.80921 10.1447 2.03289 9.9079C2.25658 9.67105 2.36842 9.39474 2.36842 9.07895V5.92105C2.36842 5.58553 2.25493 5.30428 2.02796 5.0773C1.80099 4.85033 1.51974 4.73684 1.18421 4.73684C0.868421 4.73684 0.592106 4.85033 0.355264 5.0773C0.118422 5.30428 0 5.58553 0 5.92105V9.07895C0 9.39474 0.118422 9.67105 0.355264 9.9079C0.592106 10.1447 0.875001 10.2632 1.20395 10.2632Z" fill="#595959"/>
</svg>
