<svg width="15" height="17" viewBox="0 0 15 17" fill="none" xmlns="http://www.w3.org/2000/svg">
<path d="M6.7277 16.6292C5.95642 15.8592 6.41761 14.7168 7.49976 14.7168C8.18782 14.7168 8.64319 15.1478 8.64319 15.799C8.64319 16.4057 8.07738 17 7.49976 17C7.22629 17 6.98116 16.8823 6.7277 16.6292ZM4.13299 14.3176C2.35656 13.278 2.39591 13.3086 2.53842 13.0783C2.68974 12.8339 6.12106 14.7739 6.01687 15.045C5.97899 15.1436 5.88265 15.221 5.80278 15.2171C5.72291 15.2132 4.9715 14.8084 4.13299 14.3176ZM8.98285 15.0455C8.88039 14.779 12.1904 12.9015 12.423 13.0943C12.5162 13.1715 12.5471 13.2776 12.4918 13.3301C12.3115 13.5009 9.2872 15.2242 9.16769 15.2242C9.10379 15.2242 9.02062 15.1438 8.98285 15.0455ZM7.24566 13.0679C7.24566 12.1377 7.26684 12.0531 7.49976 12.0531C7.73268 12.0531 7.75385 12.1377 7.75385 13.0679C7.75385 13.9981 7.73268 14.0826 7.49976 14.0826C7.26683 14.0826 7.24566 13.9981 7.24566 13.0679ZM0.680942 13.1367C-0.394476 12.6696 -0.138957 11.1434 1.04619 10.9551C1.45275 10.8904 1.56935 10.9328 1.90376 11.2667C2.54769 11.9096 2.39608 12.8041 1.58589 13.142C1.08037 13.3529 1.18026 13.3535 0.680942 13.1367ZM13.3857 13.1367C12.6017 12.7962 12.4626 11.8989 13.0958 11.2667C13.4302 10.9328 13.5468 10.8904 13.9533 10.9551C15.1565 11.1463 15.3934 12.6821 14.2907 13.142C13.7852 13.3529 13.885 13.3535 13.3857 13.1367ZM6.70107 11.3682C4.35654 10.7278 3.75461 7.6105 5.6908 6.1361C7.63811 4.65324 10.4473 6.02963 10.4473 8.46662C10.4473 8.8755 10.3645 9.40737 10.2632 9.64856C9.68697 11.0218 8.14978 11.7639 6.70107 11.3682ZM2.62905 11.2366C2.58266 11.1159 2.76045 10.9374 3.15541 10.7082C3.48345 10.5179 3.87639 10.2822 4.02861 10.1843C4.27626 10.0251 4.31954 10.0328 4.44015 10.2578C4.56062 10.4826 4.48701 10.5575 3.74611 10.9641C2.81785 11.4735 2.72848 11.4953 2.62905 11.2366ZM11.2237 10.9459C10.5406 10.5457 10.4543 10.4538 10.5658 10.2458C10.6801 10.0326 10.7245 10.0259 10.9709 10.1843C11.1231 10.2822 11.5161 10.5179 11.8441 10.7082C12.2391 10.9374 12.4169 11.1159 12.3705 11.2366C12.2685 11.5019 12.0994 11.4591 11.2237 10.9459ZM0.766226 8.50155C0.766226 6.68347 0.777511 6.59891 1.02032 6.59891C1.26312 6.59891 1.27442 6.68347 1.27442 8.50155C1.27442 10.3196 1.26313 10.4042 1.02032 10.4042C0.777515 10.4042 0.766226 10.3196 0.766226 8.50155ZM13.7251 8.50155C13.7251 6.68347 13.7364 6.59891 13.9792 6.59891C14.222 6.59891 14.2333 6.68347 14.2333 8.50155C14.2333 10.3196 14.222 10.4042 13.9792 10.4042C13.7364 10.4042 13.7251 10.3196 13.7251 8.50155ZM3.409 6.45434C2.82516 6.10935 2.58012 5.89381 2.62854 5.76782C2.73047 5.50264 2.84611 5.53181 3.74982 6.05074C4.44494 6.4499 4.54445 6.5507 4.43848 6.74837C4.37036 6.87546 4.30234 6.97444 4.28733 6.96833C4.2723 6.96224 3.87707 6.73092 3.409 6.45434ZM10.5511 6.72977C10.4414 6.52512 10.5344 6.43355 11.2534 6.03901C12.1822 5.52932 12.271 5.50772 12.3708 5.76733C12.4193 5.89351 12.1668 6.10843 11.5594 6.45809C10.7343 6.93301 10.6694 6.9505 10.5511 6.72977ZM0.684533 5.97057C0.298305 5.80815 0.00393969 5.33929 0.00393969 4.88654C0.00393969 3.79232 1.46232 3.31814 2.0874 4.20912C2.73287 5.12916 1.71696 6.40473 0.684533 5.97057ZM13.3893 5.97057C12.4734 5.58541 12.506 4.15057 13.4386 3.79656C13.8535 3.63907 14.5451 3.8569 14.8046 4.22683C15.4389 5.13095 14.4093 6.3995 13.3893 5.97057ZM7.24566 3.93522C7.24566 3.00504 7.26684 2.92048 7.49976 2.92048C7.73268 2.92048 7.75385 3.00504 7.75385 3.93522C7.75385 4.8654 7.73268 4.94996 7.49976 4.94996C7.26683 4.94996 7.24566 4.8654 7.24566 3.93522ZM2.55194 3.88028C2.43008 3.73367 2.57115 3.60459 3.3316 3.16687C3.84224 2.87294 4.58196 2.4404 4.97542 2.20567C5.76951 1.73194 5.91645 1.6968 6.01636 1.95675C6.07256 2.10298 4.51082 3.09734 2.78162 4.01628C2.73716 4.03991 2.63378 3.97874 2.55194 3.88028ZM10.5891 3.09768C9.42153 2.42745 8.93498 2.0821 8.98285 1.95755C9.08309 1.69675 9.2295 1.73164 10.0241 2.20567C10.4176 2.4404 11.1517 2.8697 11.6556 3.15966C12.3012 3.53123 12.5504 3.74226 12.4995 3.87447C12.4599 3.97764 12.3907 4.06141 12.3457 4.06061C12.3008 4.05965 11.5103 3.62649 10.5891 3.09768ZM6.66817 1.97493C6.21755 1.52504 6.24234 0.858444 6.7277 0.373871C7.227 -0.124624 7.77252 -0.124624 8.27181 0.373871C9.04309 1.14391 8.58191 2.28626 7.49976 2.28626C7.11733 2.28626 6.89763 2.20401 6.66817 1.97493Z" fill="#595959"/>
</svg>
