<svg width="17" height="16" viewBox="0 0 17 16" fill="none" xmlns="http://www.w3.org/2000/svg">
<path d="M1.69971 9.30604C1.07823 8.15362 0.860585 6.79127 1.08764 5.47482C1.31469 4.15837 1.97082 2.97837 2.93283 2.15641C3.89483 1.33445 5.09654 0.927058 6.31228 1.01074C7.52802 1.09443 8.67418 1.66343 9.53552 2.61091C10.3969 3.55838 10.9141 4.81915 10.9902 6.15647C11.0663 7.49379 10.696 8.81566 9.94873 9.87387C9.2015 10.9321 8.12878 11.6538 6.932 11.9036C5.73523 12.1534 4.49673 11.914 3.44907 11.2303L3.44908 11.2303L1.72146 11.7732C1.64998 11.7957 1.57434 11.7967 1.50238 11.7762C1.43042 11.7557 1.36475 11.7144 1.31219 11.6566C1.25963 11.5988 1.22207 11.5265 1.20343 11.4474C1.18478 11.3682 1.18572 11.285 1.20614 11.2064L1.69975 9.30601L1.69971 9.30604Z" stroke="#595959" stroke-width="1.5" stroke-linecap="round" stroke-linejoin="round"/>
<path d="M6 11.6567C6.25292 12.355 6.66194 12.9901 7.19759 13.5162C7.73323 14.0422 8.38217 14.4462 9.09768 14.699C9.81318 14.9519 10.5774 15.0472 11.3354 14.9782C12.0933 14.9092 12.8261 14.6776 13.481 14.3001L13.4809 14.3L15.2579 14.7938C15.3315 14.8142 15.4093 14.8152 15.4833 14.7965C15.5573 14.7779 15.6248 14.7403 15.6789 14.6877C15.733 14.6351 15.7716 14.5695 15.7908 14.4975C15.81 14.4255 15.809 14.3498 15.788 14.2783L15.2803 12.5502L15.2803 12.5502C15.7314 11.8103 15.9788 10.9698 15.9987 10.1099C16.0186 9.24991 15.8102 8.39949 15.3937 7.64065C14.9772 6.88181 14.3667 6.24016 13.6209 5.77762C12.8752 5.31509 12.0195 5.04727 11.1364 5" stroke="#595959" stroke-width="1.5" stroke-linecap="round" stroke-linejoin="round"/>
</svg>
